<?xml version="1.0" encoding="UTF-8"?>
<svg version="1.1" xmlns="http://www.w3.org/2000/svg" width="529" height="184">
<path d="M0 0 C12.34943182 10.26136364 12.34943182 10.26136364 15.75 17.0625 C12.29764956 17.5626393 9.18974457 17.71408157 5.75 17.0625 C2.89397271 14.80411222 0.94322962 11.94779279 -1.25 9.0625 C-12.0193636 -2.29562152 -28.7645217 -10.48941111 -44.4375 -11.17578125 C-57.46109709 -11.47638829 -68.55351018 -10.30188593 -79.34765625 -2.3046875 C-81.25 -0.9375 -81.25 -0.9375 -83.4375 0.13671875 C-85.8657092 1.3769894 -86.11417918 2.59041938 -87.25 5.0625 C-88.03375 6.0525 -88.8175 7.0425 -89.625 8.0625 C-96.56233638 17.66804269 -98.05767865 29.96229501 -96.625 41.4375 C-93.23797424 60.1657601 -82.70955104 75.63063361 -67.375 86.75 C-55.80742305 94.85926233 -55.80742305 94.85926233 -42.25 97.0625 C-38.62538029 95.78603317 -37.30905904 94.00074894 -35.375 90.75 C-30.91845349 83.83237556 -26.14432778 80.86067109 -18.5859375 78.0234375 C-13.47833918 75.92231846 -10.78675019 72.86897405 -8.25 68.0625 C-4.375 69.8125 -4.375 69.8125 -3.25 72.0625 C-2.64635814 77.37454841 -4.07763665 79.8637838 -7.25 84.0625 C-9.58391203 86.84364056 -9.58391203 86.84364056 -8.875 89.75 C-8.565625 90.8946875 -8.565625 90.8946875 -8.25 92.0625 C-4.92375038 93.17124987 -4.15013823 92.99173362 -0.9375 91.9375 C-0.19886719 91.70804687 0.53976563 91.47859375 1.30078125 91.2421875 C8.27094845 87.88494588 11.93492822 82.31068175 16.04882812 76.05859375 C18.53302742 72.40882228 20.58894823 69.90956753 24.75 68.0625 C27.5625 68.375 27.5625 68.375 29.75 69.0625 C29.94806207 81.34234855 23.54750028 92.24715166 15.19921875 100.87890625 C0.81877054 113.69975242 -16.05501876 117.09091932 -34.72705078 116.26220703 C-56.54244706 114.53538352 -77.79212272 102.3072998 -92.05078125 85.95703125 C-106.43479609 68.51310036 -112.34436288 48.4222297 -110.25 26.0625 C-107.91841385 12.61104147 -100.78844073 0.24596247 -89.71484375 -7.7734375 C-61.4001363 -26.64990913 -25.96992858 -20.22086042 0 0 Z " fill="#094F93" transform="translate(136.25,40.9375)"/>
<path d="M0 0 C4.99268902 1.47931526 4.99268902 1.47931526 6.375 4 C6.90376427 7.56729697 7.09197966 10.7652017 5.25 13.9375 C2.58192777 15.4494076 0.43311465 15.81651312 -2.625 16 C-3.80412964 15.42886475 -3.80412964 15.42886475 -5.00708008 14.84619141 C-7.61779591 13.69690965 -7.61779591 13.69690965 -10.08862305 14.96630859 C-10.92949463 15.52141113 -11.77036621 16.07651367 -12.63671875 16.6484375 C-13.55904297 17.24140625 -14.48136719 17.834375 -15.43164062 18.4453125 C-16.38232422 19.08210938 -17.33300781 19.71890625 -18.3125 20.375 C-20.20999232 21.61542365 -22.10962569 22.85258032 -24.01171875 24.0859375 C-24.84920654 24.6432959 -25.68669434 25.2006543 -26.54956055 25.77490234 C-28.625 27 -28.625 27 -30.625 27 C-30.728125 28.093125 -30.83125 29.18625 -30.9375 30.3125 C-31.625 34 -31.625 34 -33.16333008 35.42504883 C-34.84467084 36.92278081 -34.84467084 36.92278081 -34.8737793 39.26831055 C-34.81617432 40.13238525 -34.75856934 40.99645996 -34.69921875 41.88671875 C-34.64443359 42.82451172 -34.58964844 43.76230469 -34.53320312 44.72851562 C-34.46037109 45.70498047 -34.38753906 46.68144531 -34.3125 47.6875 C-34.2206543 49.16959961 -34.2206543 49.16959961 -34.12695312 50.68164062 C-33.97367116 53.12236119 -33.80582846 55.56119089 -33.625 58 C-32.820625 58.309375 -32.01625 58.61875 -31.1875 58.9375 C-28.625 60 -28.625 60 -27.625 61 C-27.35912169 64.05760057 -27.19090119 66.20840805 -28.6875 68.9375 C-31.80642449 70.64787795 -34.28057801 69.80513863 -37.625 69 C-39.0149408 66.2201184 -38.80988204 64.0813674 -38.625 61 C-38.26277344 60.41863281 -37.90054688 59.83726563 -37.52734375 59.23828125 C-36.17609684 55.88648696 -37.13652055 53.5201079 -38 50.0625 C-39.01742274 45.92645536 -39.83556074 42.26790417 -39.625 38 C-40.346875 38.0825 -41.06875 38.165 -41.8125 38.25 C-45.4606795 37.92571738 -46.89076848 36.33443632 -49.625 34 C-54.44298326 36.14208739 -59.24742909 38.31127258 -64.04150391 40.50634766 C-65.67350276 41.24893145 -67.30892552 41.98403836 -68.94775391 42.71142578 C-71.30534477 43.7594028 -73.64924377 44.83380711 -75.9921875 45.9140625 C-76.72557343 46.23307526 -77.45895935 46.55208801 -78.21456909 46.88076782 C-81.76573804 48.54991235 -83.40109206 49.49708636 -85.02392578 53.14208984 C-85.22228027 54.0852002 -85.42063477 55.02831055 -85.625 56 C-87.39683291 58.56915772 -88.45532463 58.95204827 -91.5 59.8125 C-94.90996581 60.01709795 -96.65664941 59.64908366 -99.625 58 C-102.0846 54.3106 -102.4246897 51.28167192 -101.625 47 C-99.5625 44 -99.5625 44 -96.625 42 C-93.0625 41.5 -93.0625 41.5 -89.625 42 C-89.00625 42.556875 -88.3875 43.11375 -87.75 43.6875 C-87.04875 44.120625 -86.3475 44.55375 -85.625 45 C-77.80176573 42.83852909 -70.49483305 39.42396274 -63.125 36.0625 C-61.93390625 35.53720703 -60.7428125 35.01191406 -59.515625 34.47070312 C-58.38640625 33.95572266 -57.2571875 33.44074219 -56.09375 32.91015625 C-55.06701172 32.44746338 -54.04027344 31.98477051 -52.98242188 31.50805664 C-50.46454907 30.22511487 -50.46454907 30.22511487 -49.78320312 27.81811523 C-49.73099609 27.21813721 -49.67878906 26.61815918 -49.625 26 C-52.34750547 24.0041419 -55.07488183 22.01658171 -57.81640625 20.046875 C-59.81682274 18.58899149 -61.7699842 17.06531902 -63.6875 15.5 C-67.44192597 13.58284632 -70.30622278 13.76566098 -74.453125 14.0546875 C-76.625 14 -76.625 14 -78.625 12 C-78.875 8.5 -78.875 8.5 -78.625 5 C-76.625 3 -76.625 3 -73 2.875 C-71.329375 2.936875 -71.329375 2.936875 -69.625 3 C-69.18220703 4.53333984 -69.18220703 4.53333984 -68.73046875 6.09765625 C-66.44792168 11.4235994 -61.76032319 13.62565649 -56.9375 16.4375 C-56.04482422 16.97826172 -55.15214844 17.51902344 -54.23242188 18.07617188 C-52.03948991 19.40131258 -49.83767198 20.70818676 -47.625 22 C-46.635 21.34 -45.645 20.68 -44.625 20 C-42.43359375 19.734375 -42.43359375 19.734375 -40.0625 19.75 C-38.88494141 19.74226563 -38.88494141 19.74226563 -37.68359375 19.734375 C-35.625 20 -35.625 20 -33.625 22 C-30.03837644 21.64606423 -27.36354268 20.50460929 -24.26953125 18.71484375 C-23.48255859 18.26689453 -22.69558594 17.81894531 -21.88476562 17.35742188 C-21.07716797 16.88884766 -20.26957031 16.42027344 -19.4375 15.9375 C-17.82117671 15.00534817 -16.20278375 14.07677295 -14.58203125 13.15234375 C-13.87022705 12.73976318 -13.15842285 12.32718262 -12.42504883 11.90209961 C-10.625 11 -10.625 11 -8.625 11 C-8.728125 10.113125 -8.83125 9.22625 -8.9375 8.3125 C-8.625 5 -8.625 5 -6.5625 2.0625 C-3.625 0 -3.625 0 0 0 Z " fill="#EF7A24" transform="translate(176.625,45)"/>
<path d="M0 0 C8 0 8 0 10.87109375 2.23828125 C11.75010986 3.24289495 12.6048233 4.26915562 13.4375 5.3125 C13.90357666 5.85720947 14.36965332 6.40191895 14.84985352 6.96313477 C16.2591724 8.6224437 17.63318563 10.30559369 19 12 C19.7528125 12.92039062 20.505625 13.84078125 21.28125 14.7890625 C22.72449524 16.56174415 24.1619645 18.33914332 25.59375 20.12109375 C28.92492811 24.10661042 32.45278683 27.89490813 36.01538086 31.67358398 C38.23598998 34.03771805 40.19556478 36.29334718 42 39 C42.33 26.13 42.66 13.26 43 0 C45.64 0 48.28 0 51 0 C51 17.82 51 35.64 51 54 C43 54 43 54 41.14892578 52.8894043 C40.55313721 52.11463745 40.55313721 52.11463745 39.9453125 51.32421875 C39.4810083 50.74905518 39.0167041 50.1738916 38.53833008 49.58129883 C38.07193115 48.95634521 37.60553223 48.3313916 37.125 47.6875 C36.0915039 46.39190313 35.05632478 45.09764714 34.01953125 43.8046875 C33.51244629 43.15854492 33.00536133 42.51240234 32.48291016 41.84667969 C30.37275519 39.2188871 28.11034841 36.77830934 25.8125 34.3125 C21.65711783 29.78849521 17.74957939 25.10655285 13.91015625 20.3125 C11.90316236 17.80830981 11.90316236 17.80830981 9 15 C8.67 27.87 8.34 40.74 8 54 C5.36 54 2.72 54 0 54 C0 36.18 0 18.36 0 0 Z " fill="#0A4F93" transform="translate(386,71)"/>
<path d="M0 0 C2.64 0 5.28 0 8 0 C8.33 7.26 8.66 14.52 9 22 C14.44234627 16.61159134 14.44234627 16.61159134 19.5625 11 C20.14773438 10.34 20.73296875 9.68 21.3359375 9 C23.02519046 7.04676132 23.02519046 7.04676132 24.3515625 4.9375 C25.79704579 2.84112657 26.8839902 1.43257806 29 0 C33.06661208 -0.57945307 36.92290229 -0.41562647 41 0 C36.14873238 5.75157956 31.06736884 11.22962276 25.859375 16.65820312 C24.9621875 17.60663086 24.9621875 17.60663086 24.046875 18.57421875 C23.50901367 19.13713623 22.97115234 19.70005371 22.41699219 20.2800293 C20.92694676 22.08867334 19.96486842 23.8715282 19 26 C19.81791016 26.81267334 20.63582031 27.62534668 21.47851562 28.46264648 C24.50006626 31.46615541 27.5183539 34.47292493 30.53564453 37.48071289 C31.84431998 38.78434621 33.15388968 40.08708243 34.46435547 41.38891602 C36.34315652 43.25564616 38.21876304 45.12553368 40.09375 46.99609375 C40.97963806 47.87423988 40.97963806 47.87423988 41.88342285 48.77012634 C43.27472334 50.16123243 44.64028531 51.57800523 46 53 C46 53.33 46 53.66 46 54 C41.33668569 54.94911418 36.55915978 55.56250488 32.32055664 52.97460938 C28.05347946 49.57454787 24.42326796 45.51612068 20.75 41.5 C19.60312323 40.29284658 18.45340285 39.08838807 17.30078125 37.88671875 C14.4934373 34.95819449 11.75323594 31.98338259 9 29 C8.67 37.25 8.34 45.5 8 54 C5.36 54 2.72 54 0 54 C0 36.18 0 18.36 0 0 Z " fill="#0A4F92" transform="translate(448,71)"/>
<path d="M0 0 C5.03060064 3.20129132 7.36651698 5.87019718 8.75 11.75 C8.75 14.06 8.75 16.37 8.75 18.75 C0.5 18.75 -7.75 18.75 -16.25 18.75 C-13.25 26.75 -13.25 26.75 -8.25 28.75 C-1.83177362 29.52018717 3.02075232 27.33219614 8.75 24.75 C9.18367688 30.04085798 9.18367688 30.04085798 8.75 32.75 C3.98536305 36.85288182 -1.67446134 37.0498241 -7.71875 36.9609375 C-12.890555 36.52995375 -16.65372885 34.71977676 -20.0625 30.875 C-24.26223669 24.87537616 -24.97453386 19.98401778 -24.25 12.75 C-22.36719004 6.70518908 -19.49931415 2.59420533 -13.9375 -0.5625 C-8.85861411 -1.86174988 -4.83298271 -1.8588395 0 0 Z M-14.25 8.75 C-14.91 10.4 -15.57 12.05 -16.25 13.75 C-10.64 13.75 -5.03 13.75 0.75 13.75 C0.25794085 8.94961878 0.25794085 8.94961878 -2 6.9375 C-6.71808924 4.44739735 -10.17123762 5.55313219 -14.25 8.75 Z " fill="#EE7B25" transform="translate(305.25,89.25)"/>
<path d="M0 0 C0 0.66 0 1.32 0 2 C-0.58265625 1.81824219 -1.1653125 1.63648438 -1.765625 1.44921875 C-4.50391518 0.60964865 -7.2510724 -0.19596584 -10 -1 C-10.92683594 -1.28617188 -11.85367188 -1.57234375 -12.80859375 -1.8671875 C-26.55080619 -5.78287897 -39.64203767 -5.2256902 -52.1875 1.6875 C-60.70582197 7.11676016 -66.21663747 14.56732796 -68.58203125 24.42578125 C-70.94576752 38.98374577 -66.40146815 52.13812517 -58 64 C-49.79804852 73.93847051 -39.41886078 79.68805626 -27.65234375 84.54296875 C-24.8154444 86.10138327 -24.03689607 86.99235737 -23 90 C-28.99764479 89.5196547 -33.48703098 88.26227906 -38.8125 85.5 C-39.50609619 85.14325195 -40.19969238 84.78650391 -40.91430664 84.41894531 C-57.24680967 75.72995539 -67.17724369 62.54964867 -73.3125 45.3125 C-75.8163277 33.63599582 -74.73880741 20.96228301 -68.5625 10.6875 C-62.70399344 1.77406263 -54.63701879 -4.87372523 -44.1171875 -7.5625 C-28.23648998 -9.79136983 -14.12459808 -7.7546813 0 0 Z " fill="#0B4F90" transform="translate(117,41)"/>
<path d="M0 0 C2.97 0 5.94 0 9 0 C9 15.18 9 30.36 9 46 C16.92 46 24.84 46 33 46 C33 48.64 33 51.28 33 54 C22.11 54 11.22 54 0 54 C0 36.18 0 18.36 0 0 Z " fill="#0A4F94" transform="translate(328,71)"/>
<path d="M0 0 C3.48623143 2.7684779 5.27170666 4.24628583 6.125 8.6875 C6.20452806 10.42035648 6.23274143 12.15597386 6.22265625 13.890625 C6.21943359 14.8703125 6.21621094 15.85 6.21289062 16.859375 C6.20451172 17.87515625 6.19613281 18.8909375 6.1875 19.9375 C6.18298828 20.96875 6.17847656 22 6.17382812 23.0625 C6.16206088 25.60422573 6.14562011 28.14583319 6.125 30.6875 C7.775 30.3575 9.425 30.0275 11.125 29.6875 C11.125 31.3375 11.125 32.9875 11.125 34.6875 C7.71294404 36.78722674 5.0949753 37.01833127 1.125 36.6875 C0.444375 36.31625 -0.23625 35.945 -0.9375 35.5625 C-2.92698161 34.39138482 -2.92698161 34.39138482 -5.25 35.5625 C-6.11625 35.93375 -6.9825 36.305 -7.875 36.6875 C-11.79968944 37.00788281 -14.57310227 36.92807346 -17.875 34.6875 C-20.00312092 31.49531862 -20.1736123 29.58330568 -20.3359375 25.8203125 C-19.6385508 22.59342152 -18.18784741 21.01918167 -15.875 18.6875 C-12.640625 17.10546875 -12.640625 17.10546875 -9.125 15.875 C-7.95453125 15.45605469 -6.7840625 15.03710938 -5.578125 14.60546875 C-4.68609375 14.30253906 -3.7940625 13.99960938 -2.875 13.6875 C-3.205 11.7075 -3.535 9.7275 -3.875 7.6875 C-7.44813209 6.49645597 -8.87498908 6.68749605 -12.5 8 C-15.88921231 9.60739423 -15.88921231 9.60739423 -18.875 11.6875 C-19.10391965 8.65431462 -19.22443364 5.71413287 -18.875 2.6875 C-14.25199338 -2.41374869 -5.99123252 -2.73512789 0 0 Z M-11.875 23.6875 C-12.71041854 26.31992673 -12.71041854 26.31992673 -11.875 28.6875 C-11.215 29.3475 -10.555 30.0075 -9.875 30.6875 C-5.53305064 30.59054884 -5.53305064 30.59054884 -1.875 28.6875 C-1.80294489 27.00141034 -1.79113932 25.31249341 -1.8125 23.625 C-1.82603516 22.24634766 -1.82603516 22.24634766 -1.83984375 20.83984375 C-1.85144531 20.12957031 -1.86304688 19.41929688 -1.875 18.6875 C-5.69645572 18.6875 -9.019158 21.2989776 -11.875 23.6875 Z " fill="#EF7A24" transform="translate(236.875,89.3125)"/>
<path d="M0 0 C0 2.97 0 5.94 0 9 C-1.175625 8.484375 -2.35125 7.96875 -3.5625 7.4375 C-7.73023338 5.88843095 -10.64654141 5.74419464 -15 7 C-17.69056198 8.6993023 -18.72015215 9.98482779 -19.56640625 13.0546875 C-20.19772039 17.00206225 -20.13160441 19.5978754 -18.875 23.4375 C-16.63735723 26.49561178 -15.71284018 27.27357475 -12 28 C-7.54985031 27.84078176 -3.29953209 27.14069219 1 26 C1 28.64 1 31.28 1 34 C-4.88598113 36.47830784 -11.13140386 37.22549707 -17.28125 35.27734375 C-22.85296593 32.70978063 -25.91124744 29.59226801 -28.3125 23.875 C-29.46039529 17.40504474 -29.23169007 11.5089983 -26.3125 5.5625 C-18.99218839 -2.54919665 -9.9441078 -4.07963397 0 0 Z " fill="#EF7A25" transform="translate(212,90)"/>
<path d="M0 0 C2.64 0 5.28 0 8 0 C8 17.82 8 35.64 8 54 C5.36 54 2.72 54 0 54 C0 36.18 0 18.36 0 0 Z " fill="#094F95" transform="translate(367,71)"/>
<path d="M0 0 C2.875 1.5 2.875 1.5 5 3 C4.45276317 6.37462715 3.9451 8.08235 2 11 C1.319375 10.649375 0.63875 10.29875 -0.0625 9.9375 C-3.8070481 8.74243146 -6.21805972 9.00099691 -10 10 C-12.0962696 13.0451804 -12.29292633 15.78778981 -12.4140625 19.421875 C-12.47207031 20.95908203 -12.47207031 20.95908203 -12.53125 22.52734375 C-12.57765625 24.12255859 -12.57765625 24.12255859 -12.625 25.75 C-12.68300781 27.36841797 -12.68300781 27.36841797 -12.7421875 29.01953125 C-12.83634631 31.67951775 -12.92197387 34.3394994 -13 37 C-15.64 37 -18.28 37 -21 37 C-21 25.12 -21 13.24 -21 1 C-18.36 1 -15.72 1 -13 1 C-12.67 2.32 -12.34 3.64 -12 5 C-11.13375 4.175 -10.2675 3.35 -9.375 2.5 C-6.19389563 -0.13470292 -4.18248232 -0.71191188 0 0 Z " fill="#EC7B29" transform="translate(275,88)"/>
<path d="M0 0 C7.5273523 2.3107221 7.5273523 2.3107221 9.5 5.1875 C9.665 5.785625 9.83 6.38375 10 7 C5.28596212 6.52060632 1.33420699 6.03165952 -3 4 C-2.67 3.34 -2.34 2.68 -2 2 C-1.34 2 -0.68 2 0 2 C0 1.34 0 0.68 0 0 Z " fill="#164B84" transform="translate(84,124)"/>
<path d="M0 0 C0.66 0.33 1.32 0.66 2 1 C2 4.96 2 8.92 2 13 C1.34 13 0.68 13 0 13 C-0.33 13.66 -0.66 14.32 -1 15 C-3.43326039 5.98468271 -3.43326039 5.98468271 -1.625 1.875 C-1.08875 1.25625 -0.5525 0.6375 0 0 Z " fill="#EA7B2D" transform="translate(140,81)"/>
<path d="M0 0 C4.47400242 -0.36275695 4.47400242 -0.36275695 6.8125 1.25 C8 3 8 3 8 7 C6.68 6.34 5.36 5.68 4 5 C4 4.01 4 3.02 4 2 C2.35 2.33 0.7 2.66 -1 3 C-0.67 2.01 -0.34 1.02 0 0 Z " fill="#F5781D" transform="translate(269,92)"/>
<path d="M0 0 C2.6875 -0.3125 2.6875 -0.3125 5 0 C4.06725891 1.12894876 3.12859878 2.25300876 2.1875 3.375 C1.66542969 4.00148438 1.14335937 4.62796875 0.60546875 5.2734375 C-1 7 -1 7 -4 9 C-3.35177251 5.49957156 -2.19256847 2.8190166 0 0 Z " fill="#0E4D87" transform="translate(484,71)"/>
<path d="M0 0 C0.99 0.33 1.98 0.66 3 1 C5.63804589 0.60602665 5.63804589 0.60602665 8 0 C4.8745041 2.64465038 1.91211733 3.84414715 -2 5 C-2 3.68 -2 2.36 -2 1 C-1.34 0.67 -0.68 0.34 0 0 Z " fill="#E57D30" transform="translate(100,87)"/>
<path d="M0 0 C0.99 0.495 0.99 0.495 2 1 C2.4140625 3.06640625 2.4140625 3.06640625 2.625 5.5625 C2.69976562 6.38878906 2.77453125 7.21507813 2.8515625 8.06640625 C2.92503906 9.02353516 2.92503906 9.02353516 3 10 C1.51171875 8.73046875 1.51171875 8.73046875 0 7 C-0.1875 3.3125 -0.1875 3.3125 0 0 Z " fill="#E87C2F" transform="translate(310,94)"/>
<path d="M0 0 C-2.1413437 2.46254526 -3.69870394 3.69050349 -7 4 C-7.99 3.34 -8.98 2.68 -10 2 C-3.375 -1.125 -3.375 -1.125 0 0 Z " fill="#0E4E89" transform="translate(115,29)"/>
<path d="M0 0 C0 1.65 0 3.3 0 5 C-0.99 5.33 -1.98 5.66 -3 6 C-3.33 4.35 -3.66 2.7 -4 1 C-2 0 -2 0 0 0 Z " fill="#DE8130" transform="translate(248,119)"/>
<path d="M0 0 C1.32 1.32 2.64 2.64 4 4 C2.35 4.33 0.7 4.66 -1 5 C-0.67 3.35 -0.34 1.7 0 0 Z " fill="#154898" transform="translate(395,73)"/>
<path d="M0 0 C1.65 0 3.3 0 5 0 C5.33 1.32 5.66 2.64 6 4 C5.01 4 4.02 4 3 4 C1.3125 2 1.3125 2 0 0 Z " fill="#154A8F" transform="translate(136,50)"/>
</svg>
